<svg xmlns="http://www.w3.org/2000/svg" xmlns:xlink="http://www.w3.org/1999/xlink" version="1.1" width="256" height="256" viewBox="0 0 256 256" xml:space="preserve">

<defs>
</defs>
<g style="stroke: none; stroke-width: 0; stroke-dasharray: none; stroke-linecap: butt; stroke-linejoin: miter; stroke-miterlimit: 10; fill: none; fill-rule: nonzero; opacity: 1;" transform="translate(1.4065934065934016 1.4065934065934016) scale(2.81 2.81)" >
	<path d="M 51.118 86.005 c -0.086 0 -0.173 -0.011 -0.26 -0.034 l -3.018 -0.809 c -0.267 -0.071 -0.493 -0.25 -0.623 -0.494 c -0.13 -0.243 -0.154 -0.53 -0.065 -0.792 c 4.672 -13.85 10.796 -22.083 22.15 -28.983 c -8.041 2.683 -16.145 8.189 -19.843 17.37 c -0.158 0.392 -0.512 0.666 -0.97 0.625 c -0.423 -0.018 -0.79 -0.3 -0.915 -0.705 c -3.311 -10.738 -0.882 -19.006 7.643 -26.021 c 4.854 -3.809 10.649 -5.053 15.762 -6.15 c 6.054 -1.299 11.281 -2.421 13.609 -7.231 c 0.181 -0.373 0.578 -0.6 0.986 -0.561 c 0.412 0.035 0.761 0.321 0.877 0.719 c 3.929 13.596 6.634 26.781 -3.292 38.631 c -7.412 7.617 -16.797 9.57 -27.95 5.868 c -1.327 2.52 -2.353 5.092 -3.128 7.836 C 51.956 85.717 51.555 86.005 51.118 86.005 z" style="stroke: none; stroke-width: 1; stroke-dasharray: none; stroke-linecap: butt; stroke-linejoin: miter; stroke-miterlimit: 10; fill: rgb(0,0,0); fill-rule: nonzero; opacity: 1;" transform=" matrix(1 0 0 1 0 0) " stroke-linecap="round" />
	<path d="M 38.882 86.005 c -0.437 0 -0.838 -0.288 -0.963 -0.729 c -0.774 -2.743 -1.801 -5.315 -3.128 -7.836 c -11.152 3.704 -20.536 1.75 -27.9 -5.814 C -3.086 59.72 -0.38 46.535 3.55 32.94 c 0.115 -0.398 0.464 -0.684 0.877 -0.719 c 0.409 -0.033 0.804 0.188 0.986 0.561 c 2.327 4.809 7.555 5.931 13.608 7.231 c 5.113 1.097 10.908 2.341 15.743 6.136 c 8.544 7.029 10.973 15.298 7.662 26.036 c -0.125 0.405 -0.491 0.687 -0.914 0.705 c -0.418 0.019 -0.812 -0.234 -0.97 -0.625 c -3.698 -9.181 -11.803 -14.688 -19.843 -17.37 c 11.354 6.9 17.477 15.133 22.151 28.983 c 0.088 0.262 0.064 0.548 -0.066 0.792 c -0.13 0.244 -0.356 0.423 -0.623 0.494 l -3.017 0.809 C 39.055 85.994 38.968 86.005 38.882 86.005 z" style="stroke: none; stroke-width: 1; stroke-dasharray: none; stroke-linecap: butt; stroke-linejoin: miter; stroke-miterlimit: 10; fill: rgb(0,0,0); fill-rule: nonzero; opacity: 1;" transform=" matrix(1 0 0 1 0 0) " stroke-linecap="round" />
	<path d="M 63.357 31.594 C 60.748 16.357 48.946 9.886 36.038 4.083 c -0.379 -0.17 -0.821 -0.089 -1.116 0.203 c -0.294 0.292 -0.377 0.735 -0.21 1.115 c 2.16 4.887 -0.368 9.598 -3.295 15.054 c -2.472 4.608 -5.275 9.831 -5.512 15.996 c -0.005 0.368 0 0.731 0.005 1.095 c 3.781 1.073 7.754 2.652 11.324 5.453 c 0.592 0.487 1.156 0.982 1.699 1.482 c 0.008 -0.048 0.021 -0.095 0.021 -0.145 c 0.058 -4.206 1.011 -8.681 2.705 -12.924 c -0.929 5.788 -0.963 10.836 -0.144 15.736 c 1.246 1.429 2.311 2.907 3.187 4.44 c 1.774 -3.19 4.313 -6.153 7.653 -8.902 l 0.081 -0.065 c 3.46 -2.715 7.267 -4.299 10.917 -5.382 C 63.54 35.448 63.547 33.569 63.357 31.594 z" style="stroke: none; stroke-width: 1; stroke-dasharray: none; stroke-linecap: butt; stroke-linejoin: miter; stroke-miterlimit: 10; fill: rgb(0,0,0); fill-rule: nonzero; opacity: 1;" transform=" matrix(1 0 0 1 0 0) " stroke-linecap="round" />
</g>
</svg>